<?xml version="1.0" encoding="UTF-8" standalone="no"?><!DOCTYPE svg PUBLIC "-//W3C//DTD SVG 1.1//EN" "http://www.w3.org/Graphics/SVG/1.1/DTD/svg11.dtd"><svg width="100%" height="100%" viewBox="0 0 542 168" version="1.1" xmlns="http://www.w3.org/2000/svg" xmlns:xlink="http://www.w3.org/1999/xlink" xml:space="preserve" xmlns:serif="http://www.serif.com/" style="fill-rule:evenodd;clip-rule:evenodd;stroke-linejoin:round;stroke-miterlimit:2;"><rect id="Artboard1" x="-117" y="-69" width="735.729" height="317.186" style="fill:none;"/><g id="logo"><path id="Text" d="M86.743,141.029l-66.392,0l-0,-110.494l-3.185,-0l0,113.679l69.577,-0l-0,-3.185Z" style="fill-rule:nonzero;"/><path d="M105.689,141.029l0,-54.451l67.985,0l-0,-3.184l-67.985,-0l0,-49.675l72.283,0l0,-3.184l-75.467,-0l0,113.679l76.104,-0l0,-3.185l-72.92,0Z" style="fill-rule:nonzero;"/><path d="M205.039,106.798l57.954,0l14.966,37.416l3.503,-0l-44.899,-113.679l-4.139,-0l-46.013,113.679l3.503,-0l15.125,-37.416Zm56.68,-3.184l-55.406,0l28.021,-69.895l0.319,0l27.066,69.895Z" style="fill-rule:nonzero;"/><path d="M300.249,144.214l-0,-51.745l41.236,0c5.307,0 10.163,-0.663 14.568,-1.99c4.405,-1.327 8.2,-3.29 11.384,-5.891c3.184,-2.6 5.679,-5.838 7.483,-9.712c1.805,-3.874 2.707,-8.306 2.707,-13.294c-0,-10.296 -3.025,-18.045 -9.075,-23.246c-6.051,-5.201 -14.542,-7.801 -25.475,-7.801l-46.012,-0l-0,113.679l3.184,-0Zm-0,-54.929l-0,-55.566l42.828,0c10.615,0 18.496,2.388 23.644,7.165c5.148,4.776 7.721,11.676 7.721,20.698c0,4.458 -0.796,8.385 -2.388,11.781c-1.592,3.397 -3.794,6.289 -6.607,8.678c-2.813,2.388 -6.13,4.192 -9.951,5.413c-3.821,1.221 -7.961,1.831 -12.419,1.831l-42.828,-0Z" style="fill-rule:nonzero;"/><g id="Symbol"><g opacity="0.8"><path d="M449.774,26.265c19.899,-17.094 49.914,-14.838 66.985,5.034c17.071,19.873 14.775,49.885 -5.124,66.979c-19.899,17.094 -49.914,14.838 -66.985,-5.034c-17.071,-19.873 -14.775,-49.885 5.124,-66.979Z" style="fill:#66af69;"/></g><g opacity="0.6"><g opacity="0.8"><path d="M416.058,71.237c14.488,-12.445 36.309,-10.838 48.7,3.586c12.39,14.424 10.688,36.238 -3.799,48.683c-14.487,12.445 -36.308,10.838 -48.699,-3.586c-12.391,-14.424 -10.689,-36.238 3.798,-48.683Z" style="fill:#66af69;"/></g></g><g opacity="0.45"><g opacity="0.8"><path d="M442.93,127.323c3.617,12.817 -3.882,26.168 -16.736,29.796c-12.854,3.628 -26.227,-3.832 -29.844,-16.648c-3.618,-12.817 3.881,-26.168 16.735,-29.796c12.854,-3.628 26.227,3.832 29.845,16.648Z" style="fill:#66af69;"/></g></g><g opacity="0.25"><g opacity="0.8"><path d="M424.614,111.636c2.629,9.316 -2.741,18.999 -11.986,21.608c-9.245,2.609 -18.885,-2.836 -21.515,-12.152c-2.629,-9.317 2.741,-18.999 11.986,-21.608c9.245,-2.609 18.885,2.836 21.515,12.152Z" style="fill:#66af69;"/></g></g><g opacity="0.2"><g opacity="0.8"><path d="M399.92,105.509c1.672,5.923 -1.747,12.079 -7.63,13.739c-5.883,1.661 -12.017,-1.799 -13.688,-7.721c-1.672,-5.923 1.747,-12.079 7.63,-13.74c5.883,-1.66 12.017,1.8 13.688,7.722Z" style="fill:#66af69;"/></g></g></g></g></svg>